<svg width="100" height="30" viewBox="0 0 100 30" fill="none" xmlns="http://www.w3.org/2000/svg">
<path fill-rule="evenodd" clip-rule="evenodd" d="M76.0347 0.717868V25.2758C76.0205 25.6754 76.1699 26.0633 76.449 26.353C76.7279 26.6425 77.1134 26.8092 77.5183 26.8156H77.9585C78.3696 26.8156 78.7632 26.6525 79.0511 26.3627C79.3387 26.073 79.4962 25.6815 79.488 25.2758L79.485 0.717868H82.3725V25.9249C82.3829 27.8226 80.8476 29.3767 78.9251 29.4146H76.7227C75.7795 29.426 74.8708 29.0627 74.2012 28.4066C73.5319 27.7504 73.1575 26.8563 73.1624 25.9249V0.717868H76.0347ZM96.513 0.434082C98.4371 0.473392 100 2.26038 100 4.20756V6.48673C99.9993 6.8101 99.7825 7.09415 99.4677 7.18408L97.0789 7.86043V4.57589C97.0789 3.74231 96.3941 3.0665 95.5496 3.0665C94.7048 3.0665 94.0201 3.74231 94.0201 4.57589V7.29285C94.0201 8.95922 95.2621 11.1086 95.2621 11.1086L98.7032 17.6623C100.107 20.2616 99.9846 22.1695 99.9846 22.1695V25.7922C99.9952 26.7451 99.6209 27.6629 98.9442 28.3428C98.2673 29.0226 97.3442 29.4085 96.3783 29.4146H94.5737C92.6246 29.3061 91.098 27.7189 91.0899 25.7922V21.7317C91.0904 21.4083 91.3073 21.1243 91.622 21.0344L94.0171 20.3583V25.3151C94.0282 26.1487 94.7217 26.8159 95.5665 26.8048C96.411 26.7941 97.0868 26.1097 97.0759 25.2758V22.0276C97.0759 20.3642 95.8339 18.1725 95.8339 18.1725L92.3868 11.6369C90.9827 9.03757 91.1021 7.12969 91.1021 7.12969V4.20756C91.1021 2.22107 92.7079 0.434082 94.7114 0.434082H96.513ZM42.1588 0.434082C44.1093 0.536934 45.6364 2.12899 45.6337 4.05652V25.8434C45.6089 27.7512 44.0891 29.3131 42.1588 29.4146H39.9534C37.9749 29.3807 36.3798 27.8051 36.3471 25.8525V4.05652C36.3365 3.10366 36.7112 2.1858 37.3878 1.50595C38.0644 0.826104 38.9878 0.440544 39.9534 0.434082H42.1588ZM9.08747 0.717868L8.39016 3.1147C8.29983 3.42594 8.01144 3.64026 7.68359 3.63999H3.07393V12.775H7.86098L7.16666 15.175C7.07524 15.4849 6.78712 15.6979 6.4601 15.6971H3.07393V26.248H9.08747L8.41138 28.6056C8.32051 28.9163 8.03266 29.1303 7.70481 29.1309H0.189453V0.717868H9.08747ZM60.4043 0.717868C62.3899 0.734561 63.9896 2.32957 63.9861 4.28915V25.5596C63.9896 27.5194 62.3899 29.1144 60.4043 29.1309H54.8312V0.717868H60.4043ZM22.4879 9.85285L25.1428 0.717868H28.0885L23.9623 14.9244L28.0885 29.1309H25.1428L22.4879 19.9959L19.8328 29.1309H16.8874L21.0136 14.9244L16.8874 0.717868H19.8328L22.4879 9.85285ZM41.1922 26.8579C41.6087 26.8514 42.0051 26.6805 42.2927 26.3829C42.5802 26.0857 42.7348 25.6867 42.7217 25.2758V4.57293C42.7348 4.16206 42.5802 3.76304 42.2927 3.46579C42.0051 3.16828 41.6087 2.9973 41.1922 2.99084H40.7517C39.896 3.03123 39.2232 3.72723 39.2224 4.57293V25.2758C39.2232 26.1215 39.896 26.8175 40.7517 26.8579H41.1922ZM59.5938 26.2569C60.4043 26.2569 61.1231 25.8434 61.1231 24.7475V5.10119C61.1231 4.04763 60.3983 3.63999 59.5938 3.63999H57.7127V26.2569H59.5938Z" fill="#F7F7FA"/>
</svg>
